<?xml version="1.0" encoding="utf-8"?>
<!-- Generator: Adobe Illustrator 17.1.0, SVG Export Plug-In . SVG Version: 6.00 Build 0)  -->
<!DOCTYPE svg PUBLIC "-//W3C//DTD SVG 1.1//EN" "http://www.w3.org/Graphics/SVG/1.1/DTD/svg11.dtd">
<svg version="1.1" id="Layer_1" xmlns="http://www.w3.org/2000/svg" xmlns:xlink="http://www.w3.org/1999/xlink" x="0px" y="0px" width="134px" height="19px"
	 viewBox="0 0 134 19" enable-background="new 0 0 134 19" xml:space="preserve">
<path fill="#FFFFFF" d="M9.2,15.9c0,1,0.1,1.3,1.1,1.4l1.6,0.1v0.9H3.2v-0.9l1.5-0.1c0.9-0.1,1.1-0.4,1.1-1.4V2.1H4.6
	C2.1,2.1,1.8,3,1,5.6H0.1V1H15v4.7h-0.9C13.4,3,13,2.1,10.6,2.1H9.2V15.9z"/>
<path fill="#FFFFFF" d="M21,3.4c0-1.3-0.2-1.4-2.1-1.5V1h13.2v4.5h-0.9c-0.7-2.5-1.1-3.4-3.7-3.4h-2.2c-0.7,0-0.9,0.2-0.9,0.9v5.7
	h2.9c1.7,0,2-0.5,2.3-2.3h0.9v5.7h-0.9c-0.3-1.8-0.6-2.2-2.3-2.2h-2.9v5.4c0,1.6,0.2,1.9,3,1.9c3,0,3.9-1,4.7-3.8h0.8l-0.1,4.9H19
	v-0.9c1.9-0.1,2-0.2,2-1.5V3.4z"/>
<path fill="#FFFFFF" d="M37,18.3v-0.9c1.3-0.1,1.7,0,1.9-1.4c0.1-0.9,0.1-1.8,0.1-3.7V3.4c0-1.3-0.2-1.4-2-1.5V1h6.3
	c1.3,3.4,3.6,9.3,4.7,12.1h0.1c1.4-3.7,3.5-8.5,4.8-12.1h6v0.9C57,1.9,56.7,2,56.7,3.3v12.5c0,1.3,0.2,1.5,2.1,1.6v0.9h-7.4v-0.9
	c1.9-0.1,2-0.2,2-1.5V3.4h-0.1c-1.5,3.9-4.7,11.9-5.7,14.7h-1.3c-1.6-4.4-4.6-11.3-5.9-14.7l0,0.1v8.9c0,1.9,0,2.9,0.1,3.7
	c0.2,1.5,1,1.2,2.4,1.3v0.9H37z"/>
<path fill="#FFFFFF" d="M71.4,18.3v-0.9l1.4,0c0.6-0.1,0.7-0.3,0.5-0.9c-0.4-1.4-1.2-3.5-1.5-4.5h-5c-0.5,1.5-1,3.2-1.3,4.3
	c-0.2,0.5-0.1,0.9,0.5,1l1.5,0v0.9h-5.8v-0.9c1.5-0.1,1.6-0.1,2.1-1.4c1.5-3.6,3.8-10.4,5.4-15.1h2.7c1.4,4.3,4,11.8,5.1,15.3
	c0.3,1.1,0.7,1.2,2.1,1.2v0.9H71.4z M69.3,4L69.3,4c-0.6,1.8-1.6,4.7-2.2,6.9h4.3C70.8,9.2,69.9,5.7,69.3,4z"/>
<path fill="#FFFFFF" d="M92.2,5.7c-0.6-2.8-2.1-4-3.8-4c-1.7,0-2.7,1.2-2.7,2.8c0,1.9,1.8,2.7,3.7,3.6c2.5,1.1,4.8,2.1,4.8,5.4
	c0,2.6-1.6,5.4-6.5,5.4c-1.7,0-4-0.3-5.2-1.5l-0.3-4.5h0.9c0.9,3.1,2.6,4.8,4.7,4.8c1.8,0,3.2-1,3.2-2.9c0-1.7-1.2-2.8-3.4-3.7
	c-2.8-1.2-5.2-2.5-5.2-5.3c0-3.1,2.1-5.2,6.1-5.2c1.6,0,3.5,0.4,4.7,1.1v4H92.2z"/>
<path fill="#FFFFFF" d="M101.1,3.4c0-1.3-0.2-1.4-2-1.5V1h13.3v4.5h-0.9c-0.7-2.5-1.1-3.4-3.8-3.4h-1.9c-0.7,0-0.9,0.2-0.9,0.9v5.7
	h2.5c1.7,0,2-0.5,2.3-2.3h0.9v5.9h-0.9c-0.3-1.8-0.6-2.4-2.3-2.4h-2.5v5.4c0,1.6,0.2,1.9,3,1.9c3,0,3.7-1.2,4.5-4h0.9l-0.4,5.1H99
	v-0.9c1.9-0.1,2-0.2,2-1.5V3.4z"/>
<path fill="#FFFFFF" d="M119.4,3.4c0-1.3-0.2-1.4-2-1.5V1h7.6v0.9c-1.9,0.1-2,0.2-2,1.5v12.5c0,1.3,0.2,1.4,2.1,1.5v0.9h-7.6v-0.9
	c1.9-0.1,2-0.2,2-1.5V3.4z M128.6,2l-1.1-0.1V1h6.6v0.9c-1.7,0.1-2.4,0.5-3.4,1.2c-1.7,1.4-3.1,2.8-5,4.8c1.5,2.4,3.8,5.7,6,8.1
	c0.7,0.8,1.6,1.4,2.3,1.6l-0.1,0.9l-1.7-0.1c-2.8-0.1-3.9-0.9-5.6-3.1c-1.4-1.8-4-6-4-6c2-2,4.7-4.9,6-6.6C129,2.3,129,2,128.6,2z"
	/>
</svg>
